<svg id="Layer_1" xmlns="http://www.w3.org/2000/svg" viewBox="0 0 330 44"><style>.logo--mercury{fill:#005caa}.logo--works{fill:#73c067}</style><path class="logo--mercury" d="M31.7 7.4h-9.2c-2.1 0-3.2.4-4.1 2-.8-1.6-2-2-4.1-2H5.1c-3.9 0-5.1 1-5.1 5.2v20.3c0 .9.1 1.3 1 1.3h2.4c.9 0 1.5-.4 1.5-1.3v-19c0-1.4.2-1.6 1.6-1.6h7.7c1.4 0 1.7.2 1.7 1.6v19c0 .9.5 1.3 1.4 1.3h2.3c.9 0 1.1-.4 1.1-1.3v-19c0-1.4.5-1.6 2-1.6h7.6c1.4 0 2 .2 2 1.6v19c0 .9.2 1.3 1.1 1.3h2.3c.9 0 1.5-.4 1.5-1.3V12.5c0-4.1-1.6-5.1-5.5-5.1zm27.1 0H46.9c-3.9 0-5.4 1-5.4 5.2V29c0 4.1 1.5 5.2 5.4 5.2h14.8c.9 0 1.1-.4 1.1-1.3v-2.1c0-.9-.2-1.5-1.1-1.5H49.1c-2.3 0-2.8 0-2.8-1.6v-3.9h12.4c3.9 0 5.3-1 5.3-5.2v-6.1c0-4.1-1.3-5.1-5.2-5.1zm.4 10c0 1.4-.4 1.6-1.8 1.6h-11v-5.1c0-1.4.5-1.6 2-1.6h9.1c1.4 0 1.8.2 1.8 1.6v3.5zm24.1-10h-9.7c-3.9 0-5.3 1-5.3 5.2v20.3c0 .9.4 1.3 1.3 1.3H72c.9 0 1.2-.4 1.2-1.3v-19c0-1.4.4-1.6 1.9-1.6h8.2c.9 0 1.5-.5 1.5-1.4V8.7c0-.9-.6-1.3-1.5-1.3zm23.5 0H93.5c-3.9 0-5.6 1-5.6 5.2V29c0 4.1 1.7 5.2 5.6 5.2h13.4c.9 0 1.1-.4 1.1-1.3v-2.1c0-.9-.3-1.5-1.1-1.5h-12c-1.4 0-1.5-.1-1.5-1.6V13.9c0-1.4.1-1.6 1.5-1.6h12c.9 0 1.1-.5 1.1-1.4V8.7c0-.9-.3-1.3-1.2-1.3zm26.6 0h-2.3c-.9 0-1.1.4-1.1 1.3v19.1c0 1.4-.5 1.6-1.9 1.6H119c-1.4 0-1.8-.1-1.8-1.6V8.7c0-.9-.4-1.3-1.3-1.3h-2.4c-.9 0-1.2.4-1.2 1.3V29c0 4.1 1.4 5.2 5.3 5.2h11.9c3.9 0 5.5-1 5.5-5.2V8.7c-.2-.9-.7-1.3-1.6-1.3zm20.8 0h-9.7c-3.9 0-5.5 1-5.5 5.2v20.3c0 .9.5 1.3 1.4 1.3h2.4c.9 0 1.1-.4 1.1-1.3v-19c0-1.4.6-1.6 2-1.6h8.2c.9 0 1.3-.5 1.3-1.4V8.7c.1-.9-.3-1.3-1.2-1.3zm26.3 0h-2.3c-.9 0-1.3.4-1.3 1.3v20.6H166c-1.4 0-1.9-.1-1.9-1.6v-19c0-.9-.3-1.3-1.2-1.3h-2.4c-.9 0-1.3.4-1.3 1.3V29c0 4.1 1.5 5.2 5.4 5.2h12.3v3.3c0 1.4-.4 1.6-1.8 1.6h-11.4c-.9 0-1.5.6-1.5 1.5v2.1c0 .9.6 1.3 1.5 1.3h12.7c3.9 0 5.3-1 5.3-5.2V8.7c.1-.9-.3-1.3-1.2-1.3z"/><path class="logo--works" d="M272.3 23.5c-.4-.7-.9-.4-.9-.4s-1.7.5-2.4.9-.4 1-.4 1l5.2 8.3c.4.6 1 .8 1.7.8h2.4c.8 0 1-.1.6-.8l-6.2-9.8zm7.3-16l-18.7-.1s-2.2-.1-2.2 1.9v2s.1 1.2 2.4 1.2c3.6 0 13.7-.1 13.7-.1s-6.1 4.4-11.8 5.3c-4.4.6-4.4 4.3-4.4 4.3v11.4s0 .9.6.9h3.1s1.1.1 1.1-.9v-8.5s-.3-2.8 2.8-3.4c2.9-.6 11-4 15.4-9.4 4-5-2-4.6-2-4.6zm-53.3.5h-2.6c-.9 0-1.4.2-1.6 1l-4.7 19.7-4-19.6c-.2-.9-.7-1.1-1.6-1.1h-3.7c-.8 0-1.4.1-1.6 1l-4 19.7L197.9 9c-.1-.8-.7-1.1-1.6-1.1h-2.7c-.9 0-1.2.2-1 1L199 33c.2.8.8 1.1 1.6 1.1h3.8c.8 0 1.4-.4 1.6-1.3l3.9-19.4 4 19.4c.1.8.7 1.3 1.6 1.3h3.9c.8 0 1.4-.4 1.6-1.3l6.3-24c.2-.7-.1-.8-1-.8zm27.5-.6h-8.2c-.9 0-1 .5-1 1.4v2.1c0 .9.1 1.3 1 1.3h4.5v17.1h-4.5c-.9 0-1 .7-1 1.5V33c0 .9.1 1.2 1 1.2h8.2c.9 0 1.2-.3 1.2-1.2V8.8c0-.9-.3-1.4-1.2-1.4zm-13.7 0h-8.2c-.9 0-1.4.5-1.4 1.4V33c0 .9.5 1.2 1.4 1.2h8.2c.9 0 1.4-.3 1.4-1.2v-2.1c0-.9-.5-1.5-1.4-1.5h-4.7V12.2h4.7c.9 0 1.4-.4 1.4-1.3V8.8c.1-.9-.5-1.4-1.4-1.4zm84.7 10.9h-9.6c-1 0-1-.3-1-1.6v-2.9c0-1.4.1-1.6 1.5-1.6h12c.9 0 1.2-.5 1.2-1.4V8.7c0-.9-.3-1.3-1.2-1.3h-13.4c-3.9 0-5.6 1-5.6 5.2V18c0 4.1 1.7 5.2 5.6 5.2h9.1c1.4 0 1.8.3 1.8 1.7v2.8c0 1.4-.3 1.6-1.8 1.6h-12.1c-.9 0-1.4.6-1.4 1.5v2.1c0 .9.6 1.3 1.4 1.3h13.5c3.9 0 5.2-1 5.2-5.2v-5.4c0-4.1-1.3-5.3-5.2-5.3zM305.2 7.4h-2.8c-.9 0-1.6.3-2 1l-6.3 10c-1.6 2.6.1 4.9.1 4.9l5.9 9.8c.4.7 1.2 1.1 2.1 1.1h2.8c.9 0 1.1-.4.6-1.2L298 20.8l7.7-12.4c.5-.7.3-1-.5-1zM289.8 0h-2.6c-.6 0-1.2.5-1.2 1.2V33c0 .7.5 1.2 1.2 1.2h2.6c.6 0 1.2-.5 1.2-1.2V1.3c0-.7-.6-1.3-1.2-1.3z"/></svg>